<?xml version="1.0" encoding="utf-8"?>
<!-- Generator: Adobe Illustrator 30.0.0, SVG Export Plug-In . SVG Version: 9.03 Build 0)  -->
<svg version="1.1" baseProfile="basic" id="Layer_1"
	 xmlns="http://www.w3.org/2000/svg" xmlns:xlink="http://www.w3.org/1999/xlink" x="0px" y="0px" viewBox="0 0 210 210"
	 xml:space="preserve">
<g>
	<g>
		<path fill="#D5D7D8" d="M186.9,186.9c-30.8,30.8-133.1,30.8-163.9,0s-30.8-133.1,0-163.9s133.1-30.8,163.9,0
			S217.7,156.2,186.9,186.9z"/>
	</g>
	<g>
		<g>
			<g>
				<path fill="#D39612" d="M119.1,61.5c-0.6,0-1.3-0.2-1.8-0.7c-9.9-9.9-23.1-15.4-37.1-15.4c-1.4,0-2.5-1.1-2.5-2.5
					s1.1-2.5,2.5-2.5c15.4,0,29.8,6,40.7,16.8c1,1,1,2.6,0,3.5C120.4,61.2,119.8,61.5,119.1,61.5z"/>
			</g>
			<g>
				<path fill="#E09E14" d="M90.9,61.5c-0.6,0-1.3-0.2-1.8-0.7c-1-1-1-2.6,0-3.5c10.9-10.9,25.3-16.8,40.7-16.8
					c1.4,0,2.5,1.1,2.5,2.5s-1.1,2.5-2.5,2.5c-14,0-27.2,5.5-37.1,15.4C92.1,61.2,91.5,61.5,90.9,61.5z"/>
			</g>
		</g>
		<g>
			<path fill="#696A6D" d="M151.5,49.6c-15.3-6.3-51.3,8.6-57.7,23.9c-6.3,15.3,23.9,88.3,39.2,94.6c15.3,6.3,51.3-8.6,57.7-23.9
				C197.1,129,166.8,56,151.5,49.6z"/>
			<path fill="#B3B5B8" d="M170,97.4c4.1,9.9,7.4,19.8,9.5,27.9c2.7,11,2.1,14.8,2,15.3c-1.7,3.8-9,10-20,14.5
				c-11,4.6-20.6,5.4-24.4,3.9c-0.4-0.3-3.6-2.5-9.4-12.2c-4.3-7.2-8.9-16.5-13-26.4s-7.4-19.8-9.5-27.9c-2.7-11-2.1-14.8-2-15.3
				c0.4-0.9,1.1-1.9,2-3c1.7-1.9,4.6-1.5,5.9,0.7c0,0,0,0.1,0.1,0.1c3.6,6.3,11.1,9.4,18.1,7.5c9.4-2.6,14.2-12.8,10.5-21.6l0,0
				c-0.5-1.3,0.4-2.7,1.8-2.8c2.6-0.1,4.7,0.1,6,0.7c0.4,0.3,3.6,2.5,9.4,12.2C161.3,78.2,165.9,87.5,170,97.4 M147.7,58.9
				L147.7,58.9L147.7,58.9 M119.5,69.4c-1.3-3.1,0.2-6.6,3.2-7.8c3.1-1.3,6.6,0.2,7.8,3.2c1.3,3.1-0.2,6.6-3.2,7.8
				C124.2,73.9,120.7,72.5,119.5,69.4L119.5,69.4z"/>
		</g>
		<g>
			<path fill="#58595B" d="M116.1,73.5c-6.3-15.3-42.4-30.2-57.7-23.9C43.2,56,12.9,129,19.3,144.3c6.3,15.3,42.4,30.2,57.7,23.9
				C92.2,161.8,122.5,88.8,116.1,73.5z"/>
			<path fill="#A7A9AC" d="M95.4,120.4c-4.1,9.9-8.7,19.2-13,26.4c-5.8,9.7-9,11.9-9.4,12.2c-3.9,1.5-13.5,0.7-24.4-3.9
				c-11-4.6-18.3-10.7-20-14.5c-0.1-0.5-0.8-4.3,2-15.3c2-8.1,5.4-18,9.5-27.9S48.7,78.2,53,71c5.8-9.7,9-11.9,9.4-12.2
				c0.9-0.3,2.1-0.6,3.5-0.7c2.5-0.1,4.4,2.2,3.7,4.6c0,0,0,0.1,0,0.1c-1.9,7,1.2,14.5,7.5,18.1c8.5,4.8,19.1,1,22.7-7.8l0,0
				c0.5-1.3,2.2-1.7,3.3-0.7c1.9,1.8,3.2,3.4,3.8,4.7c0.1,0.5,0.8,4.3-2,15.3C102.9,100.6,99.5,110.5,95.4,120.4 M106.9,77.3
				L106.9,77.3L106.9,77.3 M79.5,64.8c1.3-3.1,4.8-4.5,7.8-3.2c3.1,1.3,4.5,4.8,3.2,7.8c-1.3,3.1-4.8,4.5-7.8,3.2
				C79.6,71.4,78.2,67.9,79.5,64.8L79.5,64.8z"/>
		</g>
		<path fill="none" d="M95.4,120.4c-4.1,9.9-8.7,19.2-13,26.4c-5.8,9.7-9,11.9-9.4,12.2c-3.9,1.5-13.5,0.7-24.4-3.9
			c-11-4.6-18.3-10.7-20-14.5c-0.1-0.5-0.8-4.3,2-15.3c2-8.1,5.4-18,9.5-27.9S48.7,78.2,53,71c5.8-9.7,9-11.9,9.4-12.2
			c0.9-0.3,2.1-0.6,3.5-0.7c2.5-0.1,4.4,2.2,3.7,4.6c0,0,0,0.1,0,0.1c-1.9,7,1.2,14.5,7.5,18.1c8.5,4.8,19.1,1,22.7-7.8l0,0
			c0.5-1.3,2.2-1.7,3.3-0.7c1.9,1.8,3.2,3.4,3.8,4.7c0.1,0.5,0.8,4.3-2,15.3C102.9,100.6,99.5,110.5,95.4,120.4 M106.9,77.3
			L106.9,77.3L106.9,77.3 M104.7,124.2c8.7-21,14.7-43,11.5-50.7c-6.3-15.3-42.4-30.2-57.7-23.9c-7.7,3.2-19,23-27.7,44
			c-8.7,21-14.7,43-11.5,50.7c6.3,15.3,42.4,30.2,57.7,23.9C84.6,165,96,145.1,104.7,124.2L104.7,124.2z M79.5,64.8
			c1.3-3.1,4.8-4.5,7.8-3.2c3.1,1.3,4.5,4.8,3.2,7.8c-1.3,3.1-4.8,4.5-7.8,3.2C79.6,71.4,78.2,67.9,79.5,64.8L79.5,64.8z"/>
		<g>
			<path fill="#FCB116" d="M105,101.6c-6,0-11.7-2.3-15.9-6.6c-4.3-4.3-6.6-9.9-6.6-15.9c0-1.4,1.1-2.5,2.5-2.5s2.5,1.1,2.5,2.5
				c0,4.7,1.8,9.1,5.1,12.4c3.3,3.3,7.7,5.1,12.4,5.1s9.1-1.8,12.4-5.1c3.3-3.3,5.1-7.7,5.1-12.4c0-1.4,1.1-2.5,2.5-2.5
				s2.5,1.1,2.5,2.5c0,6-2.3,11.7-6.6,15.9C116.7,99.3,111,101.6,105,101.6z"/>
		</g>
	</g>
</g>
</svg>
